<svg xmlns="http://www.w3.org/2000/svg" viewBox="0 0 800 500" fill="none">
  <defs>
    <linearGradient id="grad1" x1="0%" y1="0%" x2="100%" y2="100%">
      <stop offset="0%" style="stop-color:#a8e0e8"/>
      <stop offset="100%" style="stop-color:#d8f5a2"/>
    </linearGradient>
  </defs>
  
  <rect width="800" height="500" rx="12" fill="white" stroke="#e5e7eb"/>
  
  <g transform="translate(400, 60)">
    <rect x="-120" y="-25" width="240" height="50" rx="8" fill="#fbbf24"/>
    <text x="0" y="10" text-anchor="middle" font-family="Arial, sans-serif" font-size="16" font-weight="bold" fill="#1f2937">HTTP 请求</text>
  </g>
  
  <path d="M400 85 L400 120" stroke="#9ca3af" stroke-width="3" stroke-dasharray="8,4"/>
  
  <g transform="translate(400, 160)">
    <rect x="-120" y="-25" width="240" height="50" rx="8" fill="#60a5fa"/>
    <text x="0" y="10" text-anchor="middle" font-family="Arial, sans-serif" font-size="14" font-weight="bold" fill="white">中间件</text>
  </g>
  
  <path d="M400 210 L400 245" stroke="#9ca3af" stroke-width="3" stroke-dasharray="8,4"/>
  
  <g transform="translate(400, 285)">
    <rect x="-120" y="-25" width="240" height="50" rx="8" fill="#34d399"/>
    <text x="0" y="10" text-anchor="middle" font-family="Arial, sans-serif" font-size="14" font-weight="bold" fill="white">路由匹配</text>
  </g>
  
  <path d="M400 335 L400 370" stroke="#9ca3af" stroke-width="3" stroke-dasharray="8,4"/>
  
  <g transform="translate(400, 410)">
    <rect x="-120" y="-25" width="240" height="50" rx="8" fill="#f472b6"/>
    <text x="0" y="10" text-anchor="middle" font-family="Arial, sans-serif" font-size="14" font-weight="bold" fill="white">服务端渲染 & 返回 HTML</text>
  </g>
  
  <g transform="translate(200, 200)">
    <circle cx="0" cy="0" r="45" fill="#fef3c7" stroke="#fbbf24" stroke-width="3"/>
    <text x="0" y="5" text-anchor="middle" font-family="Arial, sans-serif" font-size="12" font-weight="bold" fill="#92400e">岛屿</text>
    <text x="0" y="22" text-anchor="middle" font-family="Arial, sans-serif" font-size="10" fill="#92400e">Hydration</text>
  </g>
  
  <path d="M335 200 L380 200" stroke="#fbbf24" stroke-width="2" stroke-dasharray="4,2"/>
  <polygon points="385,200 375,195 375,205" fill="#fbbf24"/>
  
  <text x="400" y="480" text-anchor="middle" font-family="Arial, sans-serif" font-size="14" fill="#6b7280">Fresh 请求生命周期流程图</text>
</svg>